<?xml version="1.0" standalone="no"?>
<!DOCTYPE svg PUBLIC "-//W3C//DTD SVG 20010904//EN"
 "http://www.w3.org/TR/2001/REC-SVG-20010904/DTD/svg10.dtd">
<svg version="1.0" xmlns="http://www.w3.org/2000/svg"
 width="980.000000pt" height="980.000000pt" viewBox="0 0 980.000000 980.000000"
 preserveAspectRatio="xMidYMid meet">

<g transform="translate(0.000000,980.000000) scale(0.100000,-0.100000)"
fill="#000000" stroke="none">
<path d="M4890 6765 l0 -1075 35 0 35 0 0 1075 0 1075 -35 0 -35 0 0 -1075z"/>
<path d="M4201 7741 c-12 -8 2 -70 82 -368 53 -197 177 -661 277 -1032 99
-371 182 -676 184 -678 6 -7 56 9 56 17 0 10 -199 754 -512 1918 -42 155 -49
167 -87 143z"/>
<path d="M5600 7744 c0 -6 -38 -149 -369 -1384 -93 -349 -173 -647 -176 -661
-6 -23 -3 -27 20 -33 15 -4 29 -5 32 -3 4 5 7 14 178 652 67 253 180 675 251
938 107 402 126 480 114 488 -17 10 -50 12 -50 3z"/>
<path d="M3555 7468 c-11 -6 -22 -12 -23 -14 -2 -1 97 -177 221 -391 477 -825
684 -1183 765 -1325 46 -82 87 -148 91 -148 3 0 15 7 25 15 25 19 34 1 -196
400 -363 627 -556 961 -685 1185 -72 124 -138 240 -147 258 -18 35 -22 37 -51
20z"/>
<path d="M6073 7147 c-105 -182 -298 -516 -428 -742 -392 -679 -445 -772 -445
-782 0 -5 11 -15 24 -21 24 -11 29 -4 262 401 131 227 317 549 414 717 456
788 424 730 404 745 -11 8 -23 14 -29 15 -5 0 -96 -150 -202 -333z"/>
<path d="M2987 7028 c-17 -23 -16 -24 743 -783 l760 -760 22 23 23 22 -760
760 c-418 418 -762 760 -765 760 -3 0 -13 -10 -23 -22z"/>
<path d="M6075 6290 l-760 -760 23 -22 22 -23 762 762 c755 755 762 762 743
783 -10 11 -21 20 -24 20 -3 0 -348 -342 -766 -760z"/>
<path d="M2552 6456 c-10 -23 -5 -27 171 -129 191 -110 432 -249 1082 -624
215 -124 436 -252 493 -285 98 -58 103 -60 117 -42 8 11 15 24 15 29 0 6 -78
55 -172 110 -95 54 -486 280 -868 500 -834 482 -805 465 -817 465 -5 0 -15
-11 -21 -24z"/>
<path d="M6995 6324 c-347 -201 -1340 -774 -1470 -849 -55 -32 -101 -59 -103
-60 -9 -7 24 -55 34 -51 8 3 89 49 181 102 464 268 1088 629 1253 724 453 261
420 239 408 266 -6 13 -16 24 -22 24 -6 0 -132 -70 -281 -156z"/>
<path d="M2802 5615 c-95 -17 -267 -71 -282 -90 -12 -15 4 -379 55 -1195 19
-305 37 -616 40 -690 3 -74 8 -158 11 -186 l5 -52 157 -6 c507 -19 755 -52
1062 -141 253 -74 536 -210 815 -391 29 -18 28 -17 -10 30 -58 71 -184 177
-310 262 -344 229 -844 378 -1388 413 -82 5 -151 11 -153 13 -2 3 -11 135 -19
294 -8 159 -22 404 -30 544 -25 432 -45 837 -45 915 l0 74 38 10 c161 43 427
61 617 42 370 -38 788 -182 1053 -363 50 -34 62 -31 37 9 -22 36 -64 73 -150
132 -227 156 -581 294 -914 357 -171 33 -457 42 -589 19z"/>
<path d="M6520 5616 c-361 -52 -767 -201 -1024 -375 -96 -66 -180 -151 -164
-167 3 -2 32 13 64 34 238 155 585 285 910 338 79 13 165 18 309 19 196 0 260
-6 408 -41 l67 -16 0 -74 c0 -76 -19 -473 -45 -919 -8 -143 -22 -388 -30 -544
-8 -156 -16 -286 -19 -288 -2 -3 -69 -9 -148 -14 -650 -40 -1222 -242 -1583
-556 -44 -38 -98 -92 -120 -119 -38 -47 -39 -48 -10 -30 348 226 660 362 1011
441 233 52 458 76 856 91 l167 6 5 42 c3 22 10 145 16 271 6 127 24 442 40
700 16 259 34 569 40 690 5 121 13 263 16 316 4 72 2 98 -8 106 -22 17 -128
54 -218 75 -112 26 -403 33 -540 14z"/>
<path d="M2342 5281 c-34 -10 -65 -21 -69 -24 -3 -4 0 -163 6 -354 22 -649 61
-1678 67 -1759 l6 -81 386 -6 c493 -8 776 -31 1132 -93 272 -47 614 -142 818
-226 40 -17 76 -28 79 -25 10 11 -213 150 -332 207 -440 211 -1055 330 -1707
330 l-196 0 -6 113 c-3 61 -13 301 -21 532 -17 437 -50 1153 -61 1313 -8 105
-2 101 -102 73z"/>
<path d="M7360 5283 c0 -10 -7 -137 -15 -283 -15 -280 -50 -1069 -60 -1355 -3
-93 -8 -220 -11 -281 l-6 -111 -281 -6 c-155 -3 -345 -13 -422 -21 -642 -68
-1124 -220 -1471 -463 -36 -25 -63 -47 -61 -50 3 -2 38 9 78 25 402 159 860
256 1429 302 69 6 301 13 517 17 l391 6 6 81 c12 162 65 1668 69 1925 l2 194
-70 19 c-87 22 -95 22 -95 1z"/>
<path d="M3024 5186 c-3 -8 -4 -23 -2 -33 3 -16 14 -18 133 -15 258 7 520 -40
810 -146 122 -44 365 -164 460 -226 39 -25 73 -46 78 -46 4 0 7 13 7 29 0 26
-10 35 -82 80 -118 74 -337 183 -449 224 -275 103 -514 147 -797 147 -124 0
-154 -3 -158 -14z"/>
<path d="M6330 5184 c-137 -19 -297 -57 -440 -106 -134 -45 -375 -161 -507
-244 -81 -51 -93 -62 -93 -86 0 -15 3 -28 6 -28 3 0 46 25 94 55 270 167 561
277 885 337 80 15 164 21 305 23 l195 4 0 28 0 28 -170 2 c-101 1 -213 -5
-275 -13z"/>
<path d="M2081 5052 l-64 -16 7 -231 c6 -225 20 -889 31 -1515 5 -292 14 -562
19 -567 2 -2 146 2 322 8 356 13 1238 6 1459 -10 369 -28 635 -61 854 -106 68
-14 126 -23 129 -21 2 3 -18 16 -45 29 -212 106 -566 194 -980 242 -317 36
-524 47 -1038 52 l-520 5 -7 96 c-3 53 -11 306 -18 562 -12 500 -35 1195 -46
1378 -8 127 0 120 -103 94z"/>
<path d="M7616 4953 c-12 -224 -25 -600 -41 -1183 -8 -322 -18 -644 -21 -716
l-6 -131 -521 -6 c-797 -8 -1240 -53 -1676 -168 -152 -40 -403 -140 -389 -155
3 -2 60 7 126 21 219 44 461 75 794 101 266 21 1132 29 1527 15 173 -6 316 -9
318 -7 5 5 18 514 33 1326 6 305 13 652 17 770 l6 216 -74 17 c-41 9 -77 17
-80 17 -4 0 -9 -53 -13 -117z"/>
<path d="M3044 4768 c3 -13 6 -26 6 -30 0 -5 62 -8 138 -8 237 0 477 -41 712
-122 148 -52 387 -168 518 -253 57 -37 104 -66 106 -64 2 2 2 18 -1 34 -4 26
-20 41 -109 98 -208 136 -451 242 -692 303 -179 46 -331 64 -524 64 l-160 0 6
-22z"/>
<path d="M6310 4774 c-132 -20 -347 -75 -465 -119 -124 -46 -350 -161 -472
-240 -77 -50 -92 -64 -96 -90 -3 -16 -3 -32 -1 -34 2 -2 34 16 71 41 313 207
656 337 1006 383 65 8 181 15 258 15 76 0 139 3 139 8 0 4 3 17 6 30 l6 22
-178 -1 c-99 -1 -221 -7 -274 -15z"/>
<path d="M3113 4382 c-51 -3 -53 -4 -53 -31 l0 -28 188 -6 c221 -6 385 -33
587 -96 201 -62 475 -199 639 -320 30 -23 58 -41 61 -41 13 0 3 58 -12 72
-107 94 -442 272 -636 337 -237 81 -548 126 -774 113z"/>
<path d="M6485 4380 c-131 -8 -159 -11 -314 -41 -198 -39 -375 -103 -571 -206
-113 -59 -278 -162 -322 -201 -16 -13 -26 -72 -13 -72 3 0 35 22 73 48 366
262 828 412 1268 412 l134 0 0 30 c0 28 -2 30 -39 30 -21 0 -51 2 -67 4 -16 2
-83 0 -149 -4z"/>
<path d="M3100 3928 l0 -35 153 -6 c175 -6 293 -25 460 -73 247 -71 495 -193
726 -357 60 -42 111 -77 114 -77 3 0 4 8 2 18 -2 9 -4 25 -4 34 -1 9 -38 43
-83 75 -410 289 -783 425 -1230 448 l-138 7 0 -34z"/>
<path d="M6467 3949 c-384 -32 -766 -178 -1118 -430 -80 -57 -97 -73 -101 -99
-3 -17 -2 -33 2 -35 4 -2 37 19 75 47 378 285 859 458 1271 458 l104 0 0 35 0
35 -67 -1 c-38 -1 -112 -5 -166 -10z"/>
<path d="M1789 3359 c-108 -156 -368 -533 -578 -837 -209 -304 -381 -555 -381
-557 0 -3 1832 -5 4070 -5 2239 0 4070 3 4070 6 0 3 -44 69 -98 147 -54 78
-125 180 -157 227 -137 198 -368 531 -624 903 -151 219 -275 396 -277 394 -2
-2 -4 -120 -4 -264 l-1 -261 207 -318 c114 -176 236 -363 271 -417 35 -54 66
-104 70 -112 4 -13 -434 -15 -3457 -15 -2906 0 -3461 2 -3457 14 3 7 127 201
276 430 l271 416 -2 267 -3 267 -196 -285z"/>
</g>
</svg>
